mtllib model_4.mtl
o model_4
v -127.11503601074219 6.350959732539648e-17 -54.19649887084961 
v -127.11503601074219 20.004894256591797 -54.19649887084961 
v -127.11503601074219 6.350959732539648e-17 -7.492747783660889 
v -127.11503601074219 20.004894256591797 -7.492747783660889 
v -127.11503601074219 35.00001525878906 -54.19649887084961 
v -127.11503601074219 35.00001525878906 -7.492747783660889 
v -127.11503601074219 20.004894256591797 -0.026501700282096863 
v -127.11503601074219 35.00001525878906 -0.026501700282096863 
v -127.11503601074219 20.004894256591797 -0.026501700282096863 
v -127.11503601074219 35.00001525878906 -0.026501700282096863 
v -127.11503601074219 20.004894256591797 7.492696285247803 
v -127.11503601074219 35.00001525878906 7.492696285247803 
v -127.11503601074219 20.004894256591797 54.196449279785156 
v -127.11503601074219 35.00001525878906 54.196449279785156 
v -127.11503601074219 6.350959732539648e-17 54.196449279785156 
v -127.11503601074219 6.350959732539648e-17 7.492696285247803 
v -127.11503601074219 20.004894256591797 7.492696285247803 
v -127.59500122070312 20.004894256591797 7.492696285247803 
v -127.11503601074219 20.004894256591797 -0.026501700282096863 
v -127.59500122070312 20.004894256591797 -0.026501700282096863 
v -127.11503601074219 20.004894256591797 -7.492747783660889 
v -127.59500122070312 20.004894256591797 -7.492747783660889 
v -127.11503601074219 20.004894256591797 -7.492747783660889 
v -127.59500122070312 20.004894256591797 -7.492747783660889 
v -127.11503601074219 6.350959732539648e-17 -7.492747783660889 
v -127.59500122070312 6.350959732539648e-17 -7.492747783660889 
v -127.11503601074219 6.350959732539648e-17 7.492696285247803 
v -127.59500122070312 6.350959732539648e-17 7.492696285247803 
v -127.11503601074219 20.004894256591797 7.492696285247803 
v -127.59500122070312 20.004894256591797 7.492696285247803 
vn 0.999997615814209 0 0.002184694167226553 
vn 0.999997615814209 0 0.002184694167226553 
vn 0.999997615814209 0 0.002184694167226553 
vn 0.999997615814209 0 0.002184694167226553 
vn 0.999997615814209 0 0.002184694167226553 
vn 0.999997615814209 0 0.002184694167226553 
vn 0.999997615814209 0 0.002184694167226553 
vn 0.999997615814209 0 0.002184694167226553 
vn 0.999997615814209 0 -0.002184694167226553 
vn 0.999997615814209 0 -0.002184694167226553 
vn 0.999997615814209 0 0.002184694167226553 
vn 0.999997615814209 0 0.002184694167226553 
vn 0.999997615814209 0 0.002184694167226553 
vn 0.999997615814209 0 0.002184694167226553 
vn 0.999997615814209 0 0.002184694167226553 
vn 0.999997615814209 0 0.002184694167226553 
vn 3.097898456858039e-13 -0.999997615814209 0.002184694167226553 
vn 3.097898456858039e-13 -0.999997615814209 0.002184694167226553 
vn 3.097898456858039e-13 -0.999997615814209 0.002184694167226553 
vn 3.097898456858039e-13 -0.999997615814209 0.002184694167226553 
vn 3.097898456858039e-13 -0.999997615814209 0.002184694167226553 
vn 3.097898456858039e-13 -0.999997615814209 0.002184694167226553 
vn 0 0 1 
vn 0 0 1 
vn 0 0 1 
vn 0 0 1 
vn -2.0682311115474694e-13 0 -1 
vn -2.0682311115474694e-13 0 -1 
vn -2.0682311115474694e-13 0 -1 
vn -2.0682311115474694e-13 0 -1 
vt 0.22012287378311157 0.7201445698738098 
vt 0.22012287378311157 0.7598580121994019 
vt 0.12728355824947357 0.7201445698738098 
vt 0.12728355824947357 0.7598580121994019 
vt 0.22012287378311157 0.7897167205810547 
vt 0.12728355824947357 0.7897167205810547 
vt 0.11244189739227295 0.7598580121994019 
vt 0.11244189739227295 0.7897167205810547 
vt 0.11244189739227295 0.7598580121994019 
vt 0.11244189739227295 0.7897167205810547 
vt 0.09749498218297958 0.7598580121994019 
vt 0.09749498218297958 0.7897167205810547 
vt 0.004655660130083561 0.7598580121994019 
vt 0.004655660130083561 0.7897167205810547 
vt 0.004655660130083561 0.7201445698738098 
vt 0.09749498218297958 0.7201445698738098 
vt 0.2092811018228531 0.9359211921691895 
vt 0.20822849869728088 0.9359211921691895 
vt 0.2092811018228531 0.9210653901100159 
vt 0.20822849869728088 0.9210653901100159 
vt 0.2092811018228531 0.9062095880508423 
vt 0.20822849869728088 0.9062095880508423 
vt 0.04265452176332474 0.6845495104789734 
vt 0.04170718044042587 0.6845495104789734 
vt 0.04265452176332474 0.6448360085487366 
vt 0.04170718044042587 0.6448360085487366 
vt 0.14380937814712524 0.9459230899810791 
vt 0.14286203682422638 0.9459230899810791 
vt 0.14380937814712524 0.9062095880508423 
vt 0.14286203682422638 0.9062095880508423 
s on 
f 1/1/1 2/2/2 3/3/3 
f 2/2/2 2/2/2 3/3/3 
f 3/3/3 2/2/2 4/4/4 
f 2/2/2 5/5/5 4/4/4 
f 4/4/4 5/5/5 4/4/4 
f 5/5/5 6/6/6 4/4/4 
f 4/4/4 6/6/6 7/7/7 
f 6/6/6 8/8/8 7/7/7 
f 7/7/7 8/8/8 8/8/8 
f 8/8/8 9/9/9 8/8/8 
f 8/8/8 9/9/9 9/9/9 
f 9/9/9 10/10/10 9/9/9 
f 9/9/9 10/10/10 11/11/11 
f 10/10/10 12/12/12 11/11/11 
f 11/11/11 12/12/12 13/13/13 
f 12/12/12 14/14/14 13/13/13 
f 13/13/13 14/14/14 14/14/14 
f 14/14/14 13/13/13 14/14/14 
f 14/14/14 13/13/13 13/13/13 
f 13/13/13 15/15/15 13/13/13 
f 13/13/13 15/15/15 11/11/11 
f 15/15/15 16/16/16 11/11/11 
f 11/11/11 16/16/16 16/16/16 
f 16/16/16 17/17/17 16/16/16 
f 16/16/16 17/17/17 17/17/17 
f 17/17/17 18/18/18 17/17/17 
f 17/17/17 18/18/18 19/19/19 
f 18/18/18 20/20/20 19/19/19 
f 19/19/19 20/20/20 21/21/21 
f 20/20/20 22/22/22 21/21/21 
f 21/21/21 22/22/22 22/22/22 
f 22/22/22 23/23/23 22/22/22 
f 22/22/22 23/23/23 23/23/23 
f 23/23/23 24/24/24 23/23/23 
f 23/23/23 24/24/24 25/25/25 
f 24/24/24 26/26/26 25/25/25 
f 25/25/25 26/26/26 26/26/26 
f 26/26/26 27/27/27 26/26/26 
f 26/26/26 27/27/27 27/27/27 
f 27/27/27 28/28/28 27/27/27 
f 27/27/27 28/28/28 29/29/29 
f 28/28/28 30/30/30 29/29/29 

