mtllib model_2.mtl
o model_2
v -127.11499786376953 6.297491073608398 -7.499014377593994 
v -126.22084045410156 6.297491073608398 -7.499014377593994 
v -127.11499786376953 6.297491073608398 -53.30242919921875 
v -126.22084045410156 6.297491073608398 -53.30242919921875 
v -126.22084045410156 6.297491073608398 -54.197200775146484 
v 126.22172546386719 6.297491073608398 -54.197200775146484 
v 126.22172546386719 6.297491073608398 -53.30242919921875 
v 127.11588287353516 6.297491073608398 -53.30242919921875 
v 127.11588287353516 6.297491073608398 53.30116653442383 
v 126.22172546386719 6.297491073608398 53.30116653442383 
v 126.22172546386719 6.297491073608398 54.1959342956543 
v -126.22084045410156 6.297491073608398 54.1959342956543 
v -126.22084045410156 6.297491073608398 53.30116653442383 
v -127.11499786376953 6.297491073608398 54.1959342956543 
v -127.11499786376953 6.297491073608398 53.30116653442383 
v -127.11499786376953 6.297491073608398 7.501152992248535 
v -126.22084045410156 6.297491073608398 7.501152992248535 
v -127.11499786376953 6.297491073608398 -54.197200775146484 
v 127.11588287353516 6.297491073608398 -54.197200775146484 
v 127.11588287353516 6.297491073608398 54.1959342956543 
v -126.22084045410156 6.297491073608398 -7.499014377593994 
v -126.22084045410156 6.297491073608398 -53.30242919921875 
v -126.22084045410156 -0.000008206279744626954 -7.499014377593994 
v -126.22084045410156 -0.000008206279744626954 -53.30242919921875 
v -126.22084045410156 6.297491073608398 -53.30242919921875 
v 126.22172546386719 6.297491073608398 -53.30242919921875 
v -126.22084045410156 -0.000008206279744626954 -53.30242919921875 
v 126.22172546386719 -0.000008206279744626954 -53.30242919921875 
v 126.22172546386719 6.297491073608398 -53.30242919921875 
v 126.22172546386719 6.297491073608398 53.30116653442383 
v 126.22172546386719 -0.000008206279744626954 -53.30242919921875 
v 126.22172546386719 -0.000008206279744626954 53.30116653442383 
v -126.22084045410156 6.297491073608398 53.30116653442383 
v -126.22084045410156 -0.000008206279744626954 53.30116653442383 
v 126.22172546386719 6.297491073608398 53.30116653442383 
v 126.22172546386719 -0.000008206279744626954 53.30116653442383 
v -126.22084045410156 6.297491073608398 7.501152992248535 
v -126.22084045410156 -0.000008206279744626954 7.501152992248535 
v -126.22084045410156 6.297491073608398 53.30116653442383 
v -126.22084045410156 -0.000008206279744626954 53.30116653442383 
v -126.22084045410156 6.297491073608398 -7.499014377593994 
v -126.22084045410156 -0.000008206279744626954 -7.499014377593994 
v -127.11499786376953 6.297491073608398 -7.499014377593994 
v -127.11499786376953 -0.000008206279744626954 -7.499014377593994 
v -126.22084045410156 -0.000008206279744626954 7.501152992248535 
v -126.22084045410156 6.297491073608398 7.501152992248535 
v -127.11499786376953 -0.000008206279744626954 7.501152992248535 
v -127.11499786376953 6.297491073608398 7.501152992248535 
vn -1.0341130485562108e-13 0.999997615814209 -0.002184694167226553 
vn -1.0341130485562108e-13 0.999997615814209 -0.002184694167226553 
vn -1.0341130485562108e-13 0.999997615814209 0.002184694167226553 
vn -1.0341130485562108e-13 0.999997615814209 0.002184694167226553 
vn -1.0341130485562108e-13 0.999997615814209 0.002184694167226553 
vn -1.0341130485562108e-13 0.999997615814209 0.002184694167226553 
vn -1.0341130485562108e-13 0.999997615814209 -0.002184694167226553 
vn -1.0341130485562108e-13 0.999997615814209 -0.002184694167226553 
vn -1.0341130485562108e-13 0.999997615814209 -0.002184694167226553 
vn -1.0341130485562108e-13 0.999997615814209 -0.002184694167226553 
vn -1.0341130485562108e-13 0.999997615814209 0.002184694167226553 
vn -1.0341130485562108e-13 0.999997615814209 0.002184694167226553 
vn -1.0341130485562108e-13 0.999997615814209 0.002184694167226553 
vn -1.0341130485562108e-13 0.999997615814209 0.002184694167226553 
vn -1.0341130485562108e-13 0.999997615814209 0.002184694167226553 
vn -1.0341130485562108e-13 0.999997615814209 0.002184694167226553 
vn -1.0341130485562108e-13 0.999997615814209 0.002184694167226553 
vn -1.0341130485562108e-13 0.999997615814209 0.002184694167226553 
vn -1.0341130485562108e-13 0.999997615814209 0.002184694167226553 
vn -1.0341130485562108e-13 0.999997615814209 0.002184694167226553 
vn 0.999997615814209 0 0.002184694167226553 
vn 0.999997615814209 0 0.002184694167226553 
vn 0.999997615814209 0 0.002184694167226553 
vn 0.999997615814209 0 0.002184694167226553 
vn 0 0 1 
vn 0 0 1 
vn 0 0 1 
vn 0 0 1 
vn -0.999997615814209 -2.0682260971124217e-13 0.002184694167226553 
vn -0.999997615814209 -2.0682260971124217e-13 0.002184694167226553 
vn -0.999997615814209 -2.0682260971124217e-13 0.002184694167226553 
vn -0.999997615814209 -2.0682260971124217e-13 0.002184694167226553 
vn 2.0682311115474694e-13 4.2775797696334704e-26 -1 
vn 2.0682311115474694e-13 4.2775797696334704e-26 -1 
vn 2.0682311115474694e-13 4.2775797696334704e-26 -1 
vn 2.0682311115474694e-13 4.2775797696334704e-26 -1 
vn 0.999997615814209 0 -0.002184694167226553 
vn 0.999997615814209 0 -0.002184694167226553 
vn 0.999997615814209 0 -0.002184694167226553 
vn 0.999997615814209 0 -0.002184694167226553 
vn 0 0 1 
vn 0 0 1 
vn 0 0 1 
vn 0 0 1 
vn -2.0682311115474694e-13 0 -1 
vn -2.0682311115474694e-13 0 -1 
vn -2.0682311115474694e-13 0 -1 
vn -2.0682311115474694e-13 0 -1 
vt 0.5101050734519958 0.4413865804672241 
vt 0.5083155632019043 0.4413865804672241 
vt 0.5101050734519958 0.35032904148101807 
vt 0.5083155632019043 0.35032904148101807 
vt 0.5083155632019043 0.3485400080680847 
vt 0.006445189006626606 0.3485400080680847 
vt 0.006445189006626606 0.35032904148101807 
vt 0.004655660130083561 0.35032904148101807 
vt 0.004655660130083561 0.5622528791427612 
vt 0.006445189006626606 0.5622528791427612 
vt 0.006445189006626606 0.5640419125556946 
vt 0.5083155632019043 0.5640419125556946 
vt 0.5083155632019043 0.5622528791427612 
vt 0.5101050734519958 0.5640419125556946 
vt 0.5101050734519958 0.5622528791427612 
vt 0.5101050734519958 0.47119536995887756 
vt 0.5083155632019043 0.47119536995887756 
vt 0.5101050734519958 0.3485400080680847 
vt 0.004655660130083561 0.3485400080680847 
vt 0.004655660130083561 0.5640419125556946 
vt 0.30116212368011475 0.3976074159145355 
vt 0.38601046800613403 0.3976074159145355 
vt 0.30116212368011475 0.38595226407051086 
vt 0.38601046800613403 0.38595226407051086 
vt 0.010579618625342846 0.36608850955963135 
vt 0.4780169725418091 0.36608850955963135 
vt 0.010579618625342846 0.3544333577156067 
vt 0.4780169725418091 0.3544333577156067 
vt 0.010579618625342846 0.3976074159145355 
vt 0.20798319578170776 0.3976074159145355 
vt 0.010579618625342846 0.38595226407051086 
vt 0.20798319578170776 0.38595226407051086 
vt 0.4780169725418091 0.38184794783592224 
vt 0.4780169725418091 0.3701927959918976 
vt 0.010579618625342846 0.38184794783592224 
vt 0.010579618625342846 0.3701927959918976 
vt 0.29696598649024963 0.3976074159145355 
vt 0.29696598649024963 0.38595226407051086 
vt 0.21217933297157288 0.3976074159145355 
vt 0.21217933297157288 0.38595226407051086 
vt 0.4897414743900299 0.36608850955963135 
vt 0.4897414743900299 0.3544333577156067 
vt 0.4880753457546234 0.36608850955963135 
vt 0.4880753457546234 0.3544333577156067 
vt 0.4838792085647583 0.36608850955963135 
vt 0.4838792085647583 0.3544333577156067 
vt 0.4822131097316742 0.36608850955963135 
vt 0.4822131097316742 0.3544333577156067 
s on 
f 1/1/1 2/2/2 3/3/3 
f 2/2/2 4/4/4 3/3/3 
f 3/3/3 4/4/4 5/5/5 
f 4/4/4 4/4/4 5/5/5 
f 5/5/5 4/4/4 6/6/6 
f 4/4/4 7/7/7 6/6/6 
f 6/6/6 7/7/7 8/8/8 
f 7/7/7 7/7/7 8/8/8 
f 8/8/8 7/7/7 9/9/9 
f 7/7/7 10/10/10 9/9/9 
f 9/9/9 10/10/10 11/11/11 
f 10/10/10 10/10/10 11/11/11 
f 11/11/11 10/10/10 12/12/12 
f 10/10/10 13/13/13 12/12/12 
f 12/12/12 13/13/13 14/14/14 
f 13/13/13 13/13/13 14/14/14 
f 14/14/14 13/13/13 15/15/15 
f 13/13/13 13/13/13 15/15/15 
f 15/15/15 13/13/13 16/16/16 
f 13/13/13 17/17/17 16/16/16 
f 16/16/16 17/17/17 17/17/17 
f 17/17/17 5/5/5 17/17/17 
f 17/17/17 5/5/5 5/5/5 
f 5/5/5 18/18/18 5/5/5 
f 5/5/5 18/18/18 3/3/3 
f 18/18/18 3/3/3 3/3/3 
f 3/3/3 3/3/3 8/8/8 
f 3/3/3 8/8/8 8/8/8 
f 8/8/8 8/8/8 6/6/6 
f 8/8/8 19/19/19 6/6/6 
f 6/6/6 19/19/19 19/19/19 
f 19/19/19 11/11/11 19/19/19 
f 19/19/19 11/11/11 11/11/11 
f 11/11/11 20/20/20 11/11/11 
f 11/11/11 20/20/20 9/9/9 
f 20/20/20 9/9/9 9/9/9 
f 9/9/9 9/9/9 21/21/21 
f 9/9/9 21/21/21 21/21/21 
f 21/21/21 21/21/21 22/22/22 
f 21/21/21 23/23/23 22/22/22 
f 22/22/22 23/23/23 24/24/24 
f 23/23/23 24/24/24 24/24/24 
f 24/24/24 24/24/24 25/25/25 
f 24/24/24 25/25/25 25/25/25 
f 25/25/25 25/25/25 26/26/26 
f 25/25/25 27/27/27 26/26/26 
f 26/26/26 27/27/27 28/28/28 
f 27/27/27 28/28/28 28/28/28 
f 28/28/28 28/28/28 29/29/29 
f 28/28/28 29/29/29 29/29/29 
f 29/29/29 29/29/29 30/30/30 
f 29/29/29 31/31/31 30/30/30 
f 30/30/30 31/31/31 32/32/32 
f 31/31/31 32/32/32 32/32/32 
f 32/32/32 32/32/32 33/33/33 
f 32/32/32 33/33/33 33/33/33 
f 33/33/33 33/33/33 34/34/34 
f 33/33/33 35/35/35 34/34/34 
f 34/34/34 35/35/35 36/36/36 
f 35/35/35 36/36/36 36/36/36 
f 36/36/36 36/36/36 37/37/37 
f 36/36/36 37/37/37 37/37/37 
f 37/37/37 37/37/37 38/38/38 
f 37/37/37 39/39/39 38/38/38 
f 38/38/38 39/39/39 40/40/40 
f 39/39/39 40/40/40 40/40/40 
f 40/40/40 40/40/40 41/41/41 
f 40/40/40 41/41/41 41/41/41 
f 41/41/41 41/41/41 42/42/42 
f 41/41/41 43/43/43 42/42/42 
f 42/42/42 43/43/43 44/44/44 
f 43/43/43 44/44/44 44/44/44 
f 44/44/44 44/44/44 45/45/45 
f 44/44/44 45/45/45 45/45/45 
f 45/45/45 45/45/45 46/46/46 
f 45/45/45 47/47/47 46/46/46 
f 46/46/46 47/47/47 48/48/48 

