mtllib model_6.mtl
o model_6
v -127.11503601074219 0.01586580090224743 7.442708969116211 
v -127.11503601074219 19.966712951660156 7.442708969116211 
v -127.59500122070312 0.01586580090224743 7.442708969116211 
v -127.59500122070312 19.966712951660156 7.442708969116211 
v -127.11503601074219 19.966712951660156 7.442708969116211 
v -127.11503601074219 19.966712951660156 0.018906880170106888 
v -127.59500122070312 19.966712951660156 7.442708969116211 
v -127.59500122070312 19.966712951660156 0.018906880170106888 
v -127.11503601074219 0.01586580090224743 0.018906880170106888 
v -127.11503601074219 0.01586580090224743 7.442708969116211 
v -127.59500122070312 0.01586580090224743 0.018906880170106888 
v -127.59500122070312 0.01586580090224743 7.442708969116211 
v -127.11503601074219 0.01586580090224743 0.018906880170106888 
v -127.11503601074219 19.966712951660156 0.018906880170106888 
v -127.11503601074219 0.01586580090224743 7.442708969116211 
v -127.11503601074219 19.966712951660156 7.442708969116211 
v -127.59500122070312 19.966712951660156 0.018906880170106888 
v -127.59500122070312 20.414817810058594 0.018906880170106888 
v -127.59500122070312 19.966712951660156 7.442708969116211 
v -127.59500122070312 20.414817810058594 7.737544536590576 
v -127.59500122070312 0.01586580090224743 7.442708969116211 
v -127.59500122070312 -0.43223899602890015 7.737544536590576 
v -127.59500122070312 0.01586580090224743 0.018906880170106888 
v -127.59500122070312 -0.43223899602890015 0.018906880170106888 
v -127.11503601074219 0.01586580090224743 0.018906880170106888 
v -127.59500122070312 0.01586580090224743 0.018906880170106888 
v -127.11503601074219 19.966712951660156 0.018906880170106888 
v -127.59500122070312 19.966712951660156 0.018906880170106888 
v -127.11503601074219 19.966712951660156 -0.018892519176006317 
v -127.11503601074219 19.966712951660156 -7.442694664001465 
v -127.59500122070312 19.966712951660156 -0.018892519176006317 
v -127.59500122070312 19.966712951660156 -7.442694664001465 
v -127.11503601074219 19.966712951660156 -7.442694664001465 
v -127.11503601074219 0.01586580090224743 -7.442694664001465 
v -127.59500122070312 19.966712951660156 -7.442694664001465 
v -127.59500122070312 0.01586580090224743 -7.442694664001465 
v -127.11503601074219 0.01586580090224743 -7.442694664001465 
v -127.11503601074219 0.01586580090224743 -0.018892519176006317 
v -127.59500122070312 0.01586580090224743 -7.442694664001465 
v -127.59500122070312 0.01586580090224743 -0.018892519176006317 
v -127.11503601074219 0.01586580090224743 -7.442694664001465 
v -127.11503601074219 19.966712951660156 -7.442694664001465 
v -127.11503601074219 0.01586580090224743 -0.018892519176006317 
v -127.11503601074219 19.966712951660156 -0.018892519176006317 
v -127.59500122070312 20.414817810058594 -0.018892519176006317 
v -127.59500122070312 19.966712951660156 -0.018892519176006317 
v -127.59500122070312 20.414817810058594 -7.73753023147583 
v -127.59500122070312 19.966712951660156 -7.442694664001465 
v -127.59500122070312 -0.43223899602890015 -7.73753023147583 
v -127.59500122070312 0.01586580090224743 -7.442694664001465 
v -127.59500122070312 -0.43223899602890015 -0.018892519176006317 
v -127.59500122070312 0.01586580090224743 -0.018892519176006317 
v -127.11503601074219 19.966712951660156 -0.018892519176006317 
v -127.59500122070312 19.966712951660156 -0.018892519176006317 
v -127.11503601074219 0.01586580090224743 -0.018892519176006317 
v -127.59500122070312 0.01586580090224743 -0.018892519176006317 
vn 0 0 1 
vn 0 0 1 
vn 0 0 1 
vn 0 0 1 
vn -1.0341130485562108e-13 0.999997615814209 0.002184694167226553 
vn -1.0341130485562108e-13 0.999997615814209 0.002184694167226553 
vn -1.0341130485562108e-13 0.999997615814209 0.002184694167226553 
vn -1.0341130485562108e-13 0.999997615814209 0.002184694167226553 
vn 3.097898456858039e-13 -0.999997615814209 0.002184694167226553 
vn 3.097898456858039e-13 -0.999997615814209 0.002184694167226553 
vn 3.097898456858039e-13 -0.999997615814209 0.002184694167226553 
vn 3.097898456858039e-13 -0.999997615814209 0.002184694167226553 
vn 0.999997615814209 0 0.002184694167226553 
vn 0.999997615814209 0 0.002184694167226553 
vn 0.999997615814209 0 0.002184694167226553 
vn 0.999997615814209 0 0.002184694167226553 
vn 0.999997615814209 0 0.002184694167226553 
vn 0.999997615814209 0 0.002184694167226553 
vn 0.999997615814209 0 0.002184694167226553 
vn 0.999997615814209 0 0.002184694167226553 
vn 0.999997615814209 0 0.002184694167226553 
vn 0.999997615814209 0 0.002184694167226553 
vn 0.999997615814209 0 0.002184694167226553 
vn 0.999997615814209 0 0.002184694167226553 
vn -2.0682311115474694e-13 0 -1 
vn -2.0682311115474694e-13 0 -1 
vn -2.0682311115474694e-13 0 -1 
vn -2.0682311115474694e-13 0 -1 
vn -1.0341130485562108e-13 0.999997615814209 0.002184694167226553 
vn -1.0341130485562108e-13 0.999997615814209 0.002184694167226553 
vn -1.0341130485562108e-13 0.999997615814209 0.002184694167226553 
vn -1.0341130485562108e-13 0.999997615814209 0.002184694167226553 
vn -2.0682311115474694e-13 0 -1 
vn -2.0682311115474694e-13 0 -1 
vn -2.0682311115474694e-13 0 -1 
vn -2.0682311115474694e-13 0 -1 
vn 3.097898456858039e-13 -0.999997615814209 0.002184694167226553 
vn 3.097898456858039e-13 -0.999997615814209 0.002184694167226553 
vn 3.097898456858039e-13 -0.999997615814209 0.002184694167226553 
vn 3.097898456858039e-13 -0.999997615814209 0.002184694167226553 
vn 0.999997615814209 0 0.002184694167226553 
vn 0.999997615814209 0 0.002184694167226553 
vn 0.999997615814209 0 0.002184694167226553 
vn 0.999997615814209 0 0.002184694167226553 
vn 0.999997615814209 0 0.002184694167226553 
vn 0.999997615814209 0 0.002184694167226553 
vn 0.999997615814209 0 0.002184694167226553 
vn 0.999997615814209 0 0.002184694167226553 
vn 0.999997615814209 0 0.002184694167226553 
vn 0.999997615814209 0 0.002184694167226553 
vn 0.999997615814209 0 0.002184694167226553 
vn 0.999997615814209 0 0.002184694167226553 
vn 0 0 1 
vn 0 0 1 
vn 0 0 1 
vn 0 0 1 
vt 0.16995835304260254 0.9061799049377441 
vt 0.16995835304260254 0.9458207488059998 
vt 0.16898024082183838 0.9061799049377441 
vt 0.16898024082183838 0.9458207488059998 
vt 0.47064200043678284 0.5961726903915405 
vt 0.47064200043678284 0.6109174489974976 
vt 0.4696638882160187 0.5961726903915405 
vt 0.4696638882160187 0.6109174489974976 
vt 0.4737986922264099 0.732963502407074 
vt 0.4737986922264099 0.747708261013031 
vt 0.4728650152683258 0.732963502407074 
vt 0.4728650152683258 0.747708261013031 
vt 0.3900803029537201 0.8015426993370056 
vt 0.3900803029537201 0.8411835432052612 
vt 0.37531957030296326 0.8015426993370056 
vt 0.37531957030296326 0.8411835432052612 
vt 0.3633597791194916 0.8421022295951843 
vt 0.3633597791194916 0.8429749608039856 
vt 0.34859904646873474 0.8421022295951843 
vt 0.3480210602283478 0.8429749608039856 
vt 0.34859904646873474 0.8024154305458069 
vt 0.3480210602283478 0.8015426993370056 
vt 0.3633597791194916 0.8024154305458069 
vt 0.3633597791194916 0.8015426993370056 
vt 0.15684261918067932 0.9458207488059998 
vt 0.1559089571237564 0.9458207488059998 
vt 0.15684261918067932 0.9061799049377441 
vt 0.1559089571237564 0.9061799049377441 
vt 0.11055966466665268 0.720102071762085 
vt 0.11055966466665268 0.734846830368042 
vt 0.10962600260972977 0.720102071762085 
vt 0.10962600260972977 0.734846830368042 
vt 0.19614535570144653 0.9061799049377441 
vt 0.19614535570144653 0.9458207488059998 
vt 0.19516722857952118 0.9061799049377441 
vt 0.19516722857952118 0.9458207488059998 
vt 0.47064200043678284 0.5695769786834717 
vt 0.47064200043678284 0.5843217372894287 
vt 0.4696638882160187 0.5695769786834717 
vt 0.4696638882160187 0.5843217372894287 
vt 0.41693422198295593 0.8015426993370056 
vt 0.41693422198295593 0.8411835432052612 
vt 0.4021734595298767 0.8015426993370056 
vt 0.4021734595298767 0.8411835432052612 
vt 0.32067808508872986 0.8429749608039856 
vt 0.32067808508872986 0.8421022295951843 
vt 0.33601683378219604 0.8429749608039856 
vt 0.3354388475418091 0.8421022295951843 
vt 0.33601683378219604 0.8015426993370056 
vt 0.3354388475418091 0.8024154305458069 
vt 0.32067808508872986 0.8015426993370056 
vt 0.32067808508872986 0.8024154305458069 
vt 0.18302962183952332 0.9458207488059998 
vt 0.1820959597826004 0.9458207488059998 
vt 0.18302962183952332 0.9061799049377441 
vt 0.1820959597826004 0.9061799049377441 
s on 
f 1/1/1 2/2/2 3/3/3 
f 2/2/2 4/4/4 3/3/3 
f 3/3/3 4/4/4 4/4/4 
f 4/4/4 5/5/5 4/4/4 
f 4/4/4 5/5/5 5/5/5 
f 5/5/5 6/6/6 5/5/5 
f 5/5/5 6/6/6 7/7/7 
f 6/6/6 8/8/8 7/7/7 
f 7/7/7 8/8/8 8/8/8 
f 8/8/8 9/9/9 8/8/8 
f 8/8/8 9/9/9 9/9/9 
f 9/9/9 10/10/10 9/9/9 
f 9/9/9 10/10/10 11/11/11 
f 10/10/10 12/12/12 11/11/11 
f 11/11/11 12/12/12 12/12/12 
f 12/12/12 13/13/13 12/12/12 
f 12/12/12 13/13/13 13/13/13 
f 13/13/13 14/14/14 13/13/13 
f 13/13/13 14/14/14 15/15/15 
f 14/14/14 16/16/16 15/15/15 
f 15/15/15 16/16/16 16/16/16 
f 16/16/16 17/17/17 16/16/16 
f 16/16/16 17/17/17 17/17/17 
f 17/17/17 18/18/18 17/17/17 
f 17/17/17 18/18/18 19/19/19 
f 18/18/18 20/20/20 19/19/19 
f 19/19/19 20/20/20 21/21/21 
f 20/20/20 22/22/22 21/21/21 
f 21/21/21 22/22/22 23/23/23 
f 22/22/22 24/24/24 23/23/23 
f 23/23/23 24/24/24 24/24/24 
f 24/24/24 25/25/25 24/24/24 
f 24/24/24 25/25/25 25/25/25 
f 25/25/25 26/26/26 25/25/25 
f 25/25/25 26/26/26 27/27/27 
f 26/26/26 28/28/28 27/27/27 
f 27/27/27 28/28/28 28/28/28 
f 28/28/28 29/29/29 28/28/28 
f 28/28/28 29/29/29 29/29/29 
f 29/29/29 30/30/30 29/29/29 
f 29/29/29 30/30/30 31/31/31 
f 30/30/30 32/32/32 31/31/31 
f 31/31/31 32/32/32 32/32/32 
f 32/32/32 33/33/33 32/32/32 
f 32/32/32 33/33/33 33/33/33 
f 33/33/33 34/34/34 33/33/33 
f 33/33/33 34/34/34 35/35/35 
f 34/34/34 36/36/36 35/35/35 
f 35/35/35 36/36/36 36/36/36 
f 36/36/36 37/37/37 36/36/36 
f 36/36/36 37/37/37 37/37/37 
f 37/37/37 38/38/38 37/37/37 
f 37/37/37 38/38/38 39/39/39 
f 38/38/38 40/40/40 39/39/39 
f 39/39/39 40/40/40 40/40/40 
f 40/40/40 41/41/41 40/40/40 
f 40/40/40 41/41/41 41/41/41 
f 41/41/41 42/42/42 41/41/41 
f 41/41/41 42/42/42 43/43/43 
f 42/42/42 44/44/44 43/43/43 
f 43/43/43 44/44/44 44/44/44 
f 44/44/44 45/45/45 44/44/44 
f 44/44/44 45/45/45 45/45/45 
f 45/45/45 46/46/46 45/45/45 
f 45/45/45 46/46/46 47/47/47 
f 46/46/46 48/48/48 47/47/47 
f 47/47/47 48/48/48 49/49/49 
f 48/48/48 50/50/50 49/49/49 
f 49/49/49 50/50/50 51/51/51 
f 50/50/50 52/52/52 51/51/51 
f 51/51/51 52/52/52 52/52/52 
f 52/52/52 53/53/53 52/52/52 
f 52/52/52 53/53/53 53/53/53 
f 53/53/53 54/54/54 53/53/53 
f 53/53/53 54/54/54 55/55/55 
f 54/54/54 56/56/56 55/55/55 

